<svg width="17" height="18" viewBox="0 0 17 18" fill="none" xmlns="http://www.w3.org/2000/svg">
<circle cx="8.5" cy="9.5" r="8.5" fill="#082264"/>
<path d="M8.33945 12.3556C8.25519 12.3556 8.18357 12.3303 8.12459 12.2798C8.07404 12.2208 8.04876 12.1492 8.04876 12.0649V9.43601H5.45776C5.3735 9.43601 5.30188 9.41073 5.2429 9.36018C5.19235 9.3012 5.16707 9.22957 5.16707 9.14531V8.74087C5.16707 8.65661 5.19235 8.5892 5.2429 8.53864C5.30188 8.47966 5.3735 8.45017 5.45776 8.45017H8.04876V5.89709C8.04876 5.81283 8.07404 5.74543 8.12459 5.69487C8.18357 5.63589 8.25519 5.6064 8.33945 5.6064H8.78182C8.86608 5.6064 8.93349 5.63589 8.98404 5.69487C9.04303 5.74543 9.07252 5.81283 9.07252 5.89709V8.45017H11.6761C11.7604 8.45017 11.8278 8.47966 11.8784 8.53864C11.9374 8.5892 11.9668 8.65661 11.9668 8.74087V9.14531C11.9668 9.22957 11.9374 9.3012 11.8784 9.36018C11.8278 9.41073 11.7604 9.43601 11.6761 9.43601H9.07252V12.0649C9.07252 12.1492 9.04303 12.2208 8.98404 12.2798C8.93349 12.3303 8.86608 12.3556 8.78182 12.3556H8.33945Z" fill="white"/>
</svg>
