<svg width="78" height="18" viewBox="0 0 78 18" fill="none" xmlns="http://www.w3.org/2000/svg">
<path d="M1.26 14C1.11333 14 0.993333 13.9533 0.9 13.86C0.806667 13.7533 0.76 13.6333 0.76 13.5V11.82C0.76 11.6333 0.8 11.48 0.88 11.36C0.96 11.24 1.02 11.1533 1.06 11.1L7.78 2.66H1.44C1.30667 2.66 1.19333 2.61333 1.1 2.52C1.00667 2.42667 0.96 2.31333 0.96 2.18V0.5C0.96 0.353333 1.00667 0.233333 1.1 0.14C1.19333 0.0466659 1.30667 -9.53674e-07 1.44 -9.53674e-07H11.26C11.4067 -9.53674e-07 11.5267 0.0466659 11.62 0.14C11.7267 0.233333 11.78 0.353333 11.78 0.5V2.16C11.78 2.30667 11.7533 2.44 11.7 2.56C11.6467 2.66667 11.5867 2.76 11.52 2.84L4.98 11.32H11.5C11.6467 11.32 11.7667 11.3667 11.86 11.46C11.9533 11.5533 12 11.6733 12 11.82V13.5C12 13.6467 11.9533 13.7667 11.86 13.86C11.7667 13.9533 11.6467 14 11.5 14H1.26ZM17.0544 14.2C16.3477 14.2 15.7144 14.0667 15.1544 13.8C14.5944 13.52 14.1477 13.1467 13.8144 12.68C13.481 12.2133 13.3144 11.6933 13.3144 11.12C13.3144 10.1733 13.6944 9.42667 14.4544 8.88C15.2277 8.33333 16.241 7.96 17.4944 7.76L20.1144 7.38V7.02C20.1144 6.5 19.9944 6.1 19.7544 5.82C19.5144 5.54 19.0944 5.4 18.4944 5.4C18.0544 5.4 17.701 5.48667 17.4344 5.66C17.1677 5.83333 16.961 6.06 16.8144 6.34C16.7077 6.51333 16.5544 6.6 16.3544 6.6H14.4544C14.3077 6.6 14.1944 6.56 14.1144 6.48C14.0344 6.38667 14.001 6.28 14.0144 6.16C14.0144 5.93333 14.101 5.66667 14.2744 5.36C14.4477 5.05333 14.7144 4.75333 15.0744 4.46C15.4344 4.15333 15.8944 3.9 16.4544 3.7C17.0144 3.5 17.701 3.4 18.5144 3.4C19.3544 3.4 20.0744 3.5 20.6744 3.7C21.2744 3.9 21.7544 4.18 22.1144 4.54C22.4744 4.9 22.741 5.32 22.9144 5.8C23.0877 6.26667 23.1744 6.77333 23.1744 7.32V13.5C23.1744 13.6467 23.1277 13.7667 23.0344 13.86C22.941 13.9533 22.821 14 22.6744 14H20.7144C20.581 14 20.4677 13.9533 20.3744 13.86C20.281 13.7667 20.2344 13.6467 20.2344 13.5V12.76C20.061 13.0133 19.8277 13.2533 19.5344 13.48C19.241 13.6933 18.8877 13.8667 18.4744 14C18.0744 14.1333 17.601 14.2 17.0544 14.2ZM17.8544 12.12C18.2944 12.12 18.6877 12.0267 19.0344 11.84C19.381 11.6533 19.6544 11.3667 19.8544 10.98C20.0544 10.5933 20.1544 10.1067 20.1544 9.52V9.18L18.2944 9.48C17.5744 9.6 17.0477 9.78 16.7144 10.02C16.381 10.26 16.2144 10.5533 16.2144 10.9C16.2144 11.1533 16.2877 11.3733 16.4344 11.56C16.5944 11.7467 16.801 11.8867 17.0544 11.98C17.3077 12.0733 17.5744 12.12 17.8544 12.12ZM26.0759 14C25.9426 14 25.8293 13.9533 25.7359 13.86C25.6426 13.7667 25.5959 13.6467 25.5959 13.5V4.1C25.5959 3.95333 25.6426 3.83333 25.7359 3.74C25.8293 3.64667 25.9426 3.6 26.0759 3.6H27.9359C28.0693 3.6 28.1826 3.64667 28.2759 3.74C28.3826 3.83333 28.4359 3.95333 28.4359 4.1V4.78C28.7026 4.40667 29.0693 4.08667 29.5359 3.82C30.0159 3.55333 30.5826 3.41333 31.2359 3.4C32.7826 3.37333 33.8426 3.96 34.4159 5.16C34.7226 4.64 35.1626 4.22 35.7359 3.9C36.3226 3.56667 36.9626 3.4 37.6559 3.4C38.3493 3.4 38.9759 3.56 39.5359 3.88C40.0959 4.18667 40.5359 4.66667 40.8559 5.32C41.1893 5.96 41.3559 6.78667 41.3559 7.8V13.5C41.3559 13.6467 41.3093 13.7667 41.2159 13.86C41.1226 13.9533 41.0093 14 40.8759 14H38.8959C38.7626 14 38.6493 13.9533 38.5559 13.86C38.4626 13.7667 38.4159 13.6467 38.4159 13.5V7.96C38.4159 7.41333 38.3359 6.98667 38.1759 6.68C38.0159 6.36 37.8026 6.13333 37.5359 6C37.2826 5.86667 36.9959 5.8 36.6759 5.8C36.3959 5.8 36.1226 5.86667 35.8559 6C35.6026 6.13333 35.3893 6.36 35.2159 6.68C35.0559 6.98667 34.9759 7.41333 34.9759 7.96V13.5C34.9759 13.6467 34.9293 13.7667 34.8359 13.86C34.7426 13.9533 34.6226 14 34.4759 14H32.5159C32.3693 14 32.2493 13.9533 32.1559 13.86C32.0626 13.7667 32.0159 13.6467 32.0159 13.5V7.96C32.0159 7.41333 31.9359 6.98667 31.7759 6.68C31.6159 6.36 31.4026 6.13333 31.1359 6C30.8826 5.86667 30.6026 5.8 30.2959 5.8C30.0159 5.8 29.7426 5.87333 29.4759 6.02C29.2093 6.15333 28.9893 6.37333 28.8159 6.68C28.6559 6.98667 28.5759 7.40667 28.5759 7.94V13.5C28.5759 13.6467 28.5293 13.7667 28.4359 13.86C28.3426 13.9533 28.2293 14 28.0959 14H26.0759ZM48.5395 14.2C47.4329 14.2 46.5062 14.02 45.7595 13.66C45.0129 13.2867 44.4395 12.76 44.0395 12.08C43.6529 11.4 43.4395 10.6067 43.3995 9.7C43.3862 9.43333 43.3795 9.13333 43.3795 8.8C43.3795 8.45333 43.3862 8.15333 43.3995 7.9C43.4395 6.98 43.6662 6.18667 44.0795 5.52C44.4929 4.84 45.0729 4.32 45.8195 3.96C46.5662 3.58667 47.4729 3.4 48.5395 3.4C49.5929 3.4 50.4929 3.58667 51.2395 3.96C51.9862 4.32 52.5662 4.84 52.9795 5.52C53.3929 6.18667 53.6195 6.98 53.6595 7.9C53.6862 8.15333 53.6995 8.45333 53.6995 8.8C53.6995 9.13333 53.6862 9.43333 53.6595 9.7C53.6195 10.6067 53.3995 11.4 52.9995 12.08C52.6129 12.76 52.0462 13.2867 51.2995 13.66C50.5529 14.02 49.6329 14.2 48.5395 14.2ZM48.5395 12C49.1929 12 49.6862 11.8 50.0195 11.4C50.3529 10.9867 50.5329 10.3867 50.5595 9.6C50.5729 9.4 50.5795 9.13333 50.5795 8.8C50.5795 8.46667 50.5729 8.2 50.5595 8C50.5329 7.22667 50.3529 6.63333 50.0195 6.22C49.6862 5.80667 49.1929 5.6 48.5395 5.6C47.8862 5.6 47.3862 5.80667 47.0395 6.22C46.7062 6.63333 46.5262 7.22667 46.4995 8C46.4862 8.2 46.4795 8.46667 46.4795 8.8C46.4795 9.13333 46.4862 9.4 46.4995 9.6C46.5262 10.3867 46.7062 10.9867 47.0395 11.4C47.3862 11.8 47.8862 12 48.5395 12ZM56.2913 17.8C56.1446 17.8 56.0246 17.7533 55.9313 17.66C55.8379 17.5667 55.7913 17.4467 55.7913 17.3V4.1C55.7913 3.95333 55.8379 3.83333 55.9313 3.74C56.0246 3.64667 56.1446 3.6 56.2913 3.6H58.1913C58.3379 3.6 58.4579 3.64667 58.5513 3.74C58.6446 3.83333 58.6913 3.95333 58.6913 4.1V4.86C59.0113 4.43333 59.4246 4.08667 59.9313 3.82C60.4379 3.54 61.0713 3.4 61.8313 3.4C62.5246 3.4 63.1246 3.51333 63.6313 3.74C64.1513 3.95333 64.5846 4.26667 64.9313 4.68C65.2913 5.08 65.5646 5.56667 65.7513 6.14C65.9513 6.71333 66.0646 7.36 66.0913 8.08C66.1046 8.33333 66.1113 8.57333 66.1113 8.8C66.1113 9.02667 66.1046 9.27333 66.0913 9.54C66.0779 10.22 65.9713 10.8467 65.7713 11.42C65.5846 11.9933 65.3113 12.4867 64.9513 12.9C64.5913 13.3133 64.1513 13.6333 63.6313 13.86C63.1246 14.0867 62.5246 14.2 61.8313 14.2C61.1513 14.2 60.5579 14.08 60.0513 13.84C59.5579 13.5867 59.1513 13.2467 58.8313 12.82V17.3C58.8313 17.4467 58.7846 17.5667 58.6913 17.66C58.5979 17.7533 58.4846 17.8 58.3513 17.8H56.2913ZM60.9313 11.8C61.4379 11.8 61.8379 11.6933 62.1313 11.48C62.4246 11.2533 62.6313 10.96 62.7513 10.6C62.8846 10.24 62.9646 9.84667 62.9913 9.42C63.0179 9.00667 63.0179 8.59333 62.9913 8.18C62.9646 7.75333 62.8846 7.36 62.7513 7C62.6313 6.64 62.4246 6.35333 62.1313 6.14C61.8379 5.91333 61.4379 5.8 60.9313 5.8C60.4379 5.8 60.0379 5.91333 59.7313 6.14C59.4246 6.36667 59.2046 6.65333 59.0713 7C58.9379 7.34667 58.8579 7.72 58.8313 8.12C58.8179 8.36 58.8113 8.60667 58.8113 8.86C58.8113 9.11333 58.8179 9.36667 58.8313 9.62C58.8446 9.99333 58.9246 10.3467 59.0713 10.68C59.2313 11 59.4579 11.2667 59.7513 11.48C60.0579 11.6933 60.4513 11.8 60.9313 11.8ZM72.3327 14.2C71.506 14.2 70.7927 14.1067 70.1927 13.92C69.606 13.72 69.126 13.48 68.7527 13.2C68.3927 12.92 68.1193 12.64 67.9327 12.36C67.7593 12.0667 67.666 11.82 67.6527 11.62C67.6393 11.4733 67.686 11.3533 67.7927 11.26C67.8993 11.1667 68.006 11.12 68.1127 11.12H70.0527C70.0927 11.12 70.1327 11.1267 70.1727 11.14C70.2127 11.1533 70.2527 11.1867 70.2927 11.24C70.466 11.36 70.646 11.5 70.8327 11.66C71.0193 11.8067 71.2327 11.9333 71.4727 12.04C71.726 12.1467 72.0393 12.2 72.4127 12.2C72.8527 12.2 73.226 12.1133 73.5327 11.94C73.8393 11.7533 73.9927 11.4933 73.9927 11.16C73.9927 10.92 73.9193 10.72 73.7727 10.56C73.6393 10.4 73.3793 10.2533 72.9927 10.12C72.606 9.98667 72.0327 9.84 71.2727 9.68C70.5527 9.52 69.9393 9.30667 69.4327 9.04C68.926 8.77333 68.546 8.44 68.2927 8.04C68.0393 7.62667 67.9127 7.13333 67.9127 6.56C67.9127 6.04 68.0727 5.54 68.3927 5.06C68.726 4.58 69.2127 4.18667 69.8527 3.88C70.4927 3.56 71.2927 3.4 72.2527 3.4C72.986 3.4 73.626 3.49333 74.1727 3.68C74.7327 3.85333 75.1993 4.08 75.5727 4.36C75.946 4.62667 76.226 4.90667 76.4127 5.2C76.6127 5.48 76.7193 5.72667 76.7327 5.94C76.746 6.07333 76.706 6.18667 76.6127 6.28C76.5193 6.37333 76.4127 6.42 76.2927 6.42H74.5127C74.446 6.42 74.386 6.41333 74.3327 6.4C74.2793 6.37333 74.2327 6.34 74.1927 6.3C74.0327 6.19333 73.866 6.07333 73.6927 5.94C73.5327 5.79333 73.3393 5.66667 73.1127 5.56C72.886 5.45333 72.5927 5.4 72.2327 5.4C71.7927 5.4 71.4527 5.5 71.2127 5.7C70.986 5.88667 70.8727 6.12667 70.8727 6.42C70.8727 6.60667 70.9327 6.78 71.0527 6.94C71.1727 7.1 71.4193 7.24667 71.7927 7.38C72.166 7.51333 72.7327 7.65333 73.4927 7.8C74.3993 7.96 75.1193 8.2 75.6527 8.52C76.186 8.84 76.566 9.21333 76.7927 9.64C77.0327 10.0533 77.1527 10.5 77.1527 10.98C77.1527 11.6067 76.966 12.1667 76.5927 12.66C76.2193 13.14 75.6727 13.52 74.9527 13.8C74.246 14.0667 73.3727 14.2 72.3327 14.2Z" fill="white"/>
</svg>
