<svg width="98" height="23" viewBox="0 0 98 23" fill="none" xmlns="http://www.w3.org/2000/svg">
<path d="M1.5916 18C1.40633 18 1.25475 17.9411 1.13686 17.8232C1.01896 17.6884 0.960011 17.5368 0.960011 17.3684V15.2463C0.960011 15.0105 1.01054 14.8168 1.11159 14.6652C1.21265 14.5136 1.28844 14.4042 1.33896 14.3368L9.82749 3.67562H1.81897C1.65055 3.67562 1.50739 3.61667 1.38949 3.49877C1.27159 3.38088 1.21265 3.23772 1.21265 3.0693V0.947165C1.21265 0.761899 1.27159 0.610319 1.38949 0.492423C1.50739 0.374526 1.65055 0.315578 1.81897 0.315578H14.2233C14.4086 0.315578 14.5602 0.374526 14.6781 0.492423C14.8128 0.610319 14.8802 0.761899 14.8802 0.947165V3.04403C14.8802 3.2293 14.8465 3.39772 14.7791 3.5493C14.7118 3.68404 14.636 3.80194 14.5518 3.90299L6.2906 14.6147H14.5265C14.7118 14.6147 14.8633 14.6736 14.9812 14.7915C15.0991 14.9094 15.1581 15.061 15.1581 15.2463V17.3684C15.1581 17.5537 15.0991 17.7053 14.9812 17.8232C14.8633 17.9411 14.7118 18 14.5265 18H1.5916ZM21.5426 18.2526C20.65 18.2526 19.85 18.0842 19.1426 17.7474C18.4352 17.3937 17.871 16.9221 17.4499 16.3326C17.0289 15.7431 16.8184 15.0863 16.8184 14.3621C16.8184 13.1663 17.2984 12.2231 18.2584 11.5326C19.2352 10.842 20.5152 10.3704 22.0984 10.1178L25.4079 9.63779V9.18305C25.4079 8.5262 25.2564 8.02093 24.9532 7.66725C24.65 7.31356 24.1195 7.13671 23.3616 7.13671C22.8058 7.13671 22.3595 7.24619 22.0226 7.46514C21.6858 7.68409 21.4247 7.97041 21.2395 8.3241C21.1047 8.54305 20.911 8.65252 20.6584 8.65252H18.2584C18.0731 8.65252 17.93 8.60199 17.8289 8.50094C17.7278 8.38304 17.6857 8.2483 17.7026 8.09672C17.7026 7.8104 17.8121 7.47356 18.031 7.08619C18.25 6.69881 18.5868 6.31986 19.0415 5.94933C19.4963 5.56196 20.0773 5.24195 20.7847 4.98932C21.4921 4.73668 22.3595 4.61037 23.3869 4.61037C24.4479 4.61037 25.3574 4.73668 26.1153 4.98932C26.8732 5.24195 27.4795 5.59564 27.9343 6.05038C28.389 6.50513 28.7259 7.03566 28.9448 7.64198C29.1638 8.23146 29.2732 8.87147 29.2732 9.562V17.3684C29.2732 17.5537 29.2143 17.7053 29.0964 17.8232C28.9785 17.9411 28.8269 18 28.6417 18H26.1658C25.9974 18 25.8543 17.9411 25.7364 17.8232C25.6185 17.7053 25.5595 17.5537 25.5595 17.3684V16.4337C25.3406 16.7537 25.0458 17.0568 24.6753 17.3432C24.3048 17.6126 23.8584 17.8316 23.3363 18C22.8311 18.1684 22.2332 18.2526 21.5426 18.2526ZM22.5532 15.6252C23.109 15.6252 23.6058 15.5073 24.0437 15.2715C24.4816 15.0358 24.8269 14.6736 25.0795 14.1852C25.3321 13.6968 25.4585 13.082 25.4585 12.341V11.9115L23.109 12.2905C22.1995 12.442 21.5342 12.6694 21.1131 12.9726C20.6921 13.2757 20.4816 13.6463 20.4816 14.0842C20.4816 14.4042 20.5742 14.6821 20.7595 14.9179C20.9616 15.1537 21.2226 15.3305 21.5426 15.4484C21.8626 15.5663 22.1995 15.6252 22.5532 15.6252ZM32.9384 18C32.77 18 32.6268 17.9411 32.5089 17.8232C32.391 17.7053 32.3321 17.5537 32.3321 17.3684V5.49459C32.3321 5.30932 32.391 5.15774 32.5089 5.03985C32.6268 4.92195 32.77 4.863 32.9384 4.863H35.2879C35.4563 4.863 35.5995 4.92195 35.7174 5.03985C35.8521 5.15774 35.9195 5.30932 35.9195 5.49459V6.35355C36.2564 5.88196 36.7195 5.47775 37.309 5.1409C37.9153 4.80405 38.6311 4.62721 39.4564 4.61037C41.4101 4.57668 42.7491 5.31774 43.4733 6.83355C43.8607 6.1767 44.4165 5.64617 45.1407 5.24195C45.8817 4.8209 46.6902 4.61037 47.566 4.61037C48.4418 4.61037 49.2334 4.81247 49.9407 5.21669C50.6481 5.60406 51.2039 6.21039 51.6081 7.03566C52.0292 7.84409 52.2397 8.88831 52.2397 10.1683V17.3684C52.2397 17.5537 52.1808 17.7053 52.0629 17.8232C51.945 17.9411 51.8018 18 51.6334 18H49.1323C48.9639 18 48.8207 17.9411 48.7028 17.8232C48.5849 17.7053 48.526 17.5537 48.526 17.3684V10.3704C48.526 9.6799 48.4249 9.14095 48.2228 8.75357C48.0207 8.34936 47.7512 8.06304 47.4144 7.89462C47.0944 7.72619 46.7323 7.64198 46.3281 7.64198C45.9744 7.64198 45.6291 7.72619 45.2923 7.89462C44.9722 8.06304 44.7028 8.34936 44.4838 8.75357C44.2817 9.14095 44.1807 9.6799 44.1807 10.3704V17.3684C44.1807 17.5537 44.1217 17.7053 44.0038 17.8232C43.8859 17.9411 43.7343 18 43.5491 18H41.0733C40.888 18 40.7364 17.9411 40.6185 17.8232C40.5006 17.7053 40.4417 17.5537 40.4417 17.3684V10.3704C40.4417 9.6799 40.3406 9.14095 40.1385 8.75357C39.9364 8.34936 39.6669 8.06304 39.3301 7.89462C39.0101 7.72619 38.6564 7.64198 38.269 7.64198C37.9153 7.64198 37.5701 7.73461 37.2332 7.91988C36.8964 8.0883 36.6185 8.3662 36.3995 8.75357C36.1974 9.14095 36.0964 9.67148 36.0964 10.3452V17.3684C36.0964 17.5537 36.0374 17.7053 35.9195 17.8232C35.8016 17.9411 35.6585 18 35.49 18H32.9384ZM61.3138 18.2526C59.9159 18.2526 58.7454 18.0253 57.8022 17.5705C56.859 17.0989 56.1348 16.4337 55.6295 15.5747C55.1411 14.7158 54.8716 13.7136 54.8211 12.5684C54.8043 12.2315 54.7958 11.8526 54.7958 11.4315C54.7958 10.9936 54.8043 10.6146 54.8211 10.2946C54.8716 9.13253 55.158 8.13041 55.6801 7.28829C56.2022 6.42934 56.9348 5.77249 57.878 5.31774C58.8212 4.84616 59.9664 4.61037 61.3138 4.61037C62.6444 4.61037 63.7812 4.84616 64.7244 5.31774C65.6676 5.77249 66.4002 6.42934 66.9223 7.28829C67.4444 8.13041 67.7307 9.13253 67.7813 10.2946C67.8149 10.6146 67.8318 10.9936 67.8318 11.4315C67.8318 11.8526 67.8149 12.2315 67.7813 12.5684C67.7307 13.7136 67.4528 14.7158 66.9476 15.5747C66.4591 16.4337 65.7433 17.0989 64.8002 17.5705C63.857 18.0253 62.6949 18.2526 61.3138 18.2526ZM61.3138 15.4737C62.1391 15.4737 62.7623 15.221 63.1833 14.7158C63.6044 14.1936 63.8317 13.4357 63.8654 12.442C63.8823 12.1894 63.8907 11.8526 63.8907 11.4315C63.8907 11.0104 63.8823 10.6736 63.8654 10.421C63.8317 9.44411 63.6044 8.69463 63.1833 8.17251C62.7623 7.6504 62.1391 7.38935 61.3138 7.38935C60.4885 7.38935 59.857 7.6504 59.4191 8.17251C58.998 8.69463 58.7706 9.44411 58.7369 10.421C58.7201 10.6736 58.7117 11.0104 58.7117 11.4315C58.7117 11.8526 58.7201 12.1894 58.7369 12.442C58.7706 13.4357 58.998 14.1936 59.4191 14.7158C59.857 15.221 60.4885 15.4737 61.3138 15.4737ZM71.1056 22.8001C70.9203 22.8001 70.7687 22.7411 70.6508 22.6232C70.5329 22.5053 70.474 22.3537 70.474 22.1685V5.49459C70.474 5.30932 70.5329 5.15774 70.6508 5.03985C70.7687 4.92195 70.9203 4.863 71.1056 4.863H73.5056C73.6909 4.863 73.8425 4.92195 73.9604 5.03985C74.0783 5.15774 74.1372 5.30932 74.1372 5.49459V6.4546C74.5414 5.91565 75.0635 5.47775 75.7035 5.1409C76.3435 4.78721 77.1436 4.61037 78.1036 4.61037C78.9794 4.61037 79.7373 4.75353 80.3773 5.03985C81.0341 5.30932 81.5815 5.70512 82.0194 6.22723C82.4741 6.7325 82.8194 7.34724 83.0552 8.07146C83.3078 8.79568 83.451 9.61253 83.4847 10.522C83.5015 10.842 83.5099 11.1452 83.5099 11.4315C83.5099 11.7178 83.5015 12.0294 83.4847 12.3662C83.4678 13.2252 83.3331 14.0168 83.0805 14.741C82.8447 15.4652 82.4994 16.0884 82.0447 16.6105C81.5899 17.1326 81.0341 17.5368 80.3773 17.8232C79.7373 18.1095 78.9794 18.2526 78.1036 18.2526C77.2446 18.2526 76.4951 18.1011 75.8551 17.7979C75.232 17.4779 74.7183 17.0484 74.314 16.5095V22.1685C74.314 22.3537 74.2551 22.5053 74.1372 22.6232C74.0193 22.7411 73.8761 22.8001 73.7077 22.8001H71.1056ZM76.9667 15.221C77.6067 15.221 78.112 15.0863 78.4825 14.8168C78.853 14.5305 79.1141 14.16 79.2657 13.7052C79.4341 13.2505 79.5352 12.7536 79.5688 12.2147C79.6025 11.6926 79.6025 11.1704 79.5688 10.6483C79.5352 10.1094 79.4341 9.61253 79.2657 9.15779C79.1141 8.70305 78.853 8.34094 78.4825 8.07146C78.112 7.78514 77.6067 7.64198 76.9667 7.64198C76.3435 7.64198 75.8383 7.78514 75.4509 8.07146C75.0635 8.35778 74.7856 8.71989 74.6172 9.15779C74.4488 9.59569 74.3477 10.0673 74.314 10.5725C74.2972 10.8757 74.2888 11.1873 74.2888 11.5073C74.2888 11.8273 74.2972 12.1473 74.314 12.4673C74.3309 12.9389 74.4319 13.3852 74.6172 13.8063C74.8193 14.2105 75.1056 14.5473 75.4762 14.8168C75.8635 15.0863 76.3604 15.221 76.9667 15.221ZM91.3687 18.2526C90.3244 18.2526 89.4234 18.1347 88.6655 17.8989C87.9244 17.6463 87.3181 17.3432 86.8465 16.9895C86.3918 16.6358 86.0465 16.2821 85.8107 15.9284C85.5917 15.5579 85.4738 15.2463 85.457 14.9936C85.4402 14.8084 85.4991 14.6568 85.6338 14.5389C85.7686 14.421 85.9033 14.3621 86.0381 14.3621H88.4886C88.5391 14.3621 88.5897 14.3705 88.6402 14.3873C88.6907 14.4042 88.7413 14.4463 88.7918 14.5136C89.0107 14.6652 89.2381 14.8421 89.4739 15.0442C89.7097 15.2294 89.9792 15.3894 90.2823 15.5242C90.6023 15.6589 90.9981 15.7263 91.4697 15.7263C92.0255 15.7263 92.4971 15.6168 92.8845 15.3979C93.2718 15.1621 93.4655 14.8336 93.4655 14.4126C93.4655 14.1094 93.3729 13.8568 93.1876 13.6547C93.0192 13.4526 92.6908 13.2673 92.2023 13.0989C91.7139 12.9305 90.9897 12.7452 90.0297 12.5431C89.1202 12.341 88.3455 12.0715 87.7055 11.7347C87.0654 11.3978 86.5854 10.9768 86.2654 10.4715C85.9454 9.94938 85.7854 9.32621 85.7854 8.60199C85.7854 7.94514 85.9875 7.31356 86.3918 6.70723C86.8128 6.10091 87.4276 5.60406 88.236 5.21669C89.0444 4.81247 90.055 4.61037 91.2676 4.61037C92.1939 4.61037 93.0024 4.72826 93.6929 4.96405C94.4003 5.183 94.9897 5.46932 95.4613 5.82301C95.9329 6.15986 96.2866 6.51355 96.5224 6.88408C96.775 7.23777 96.9098 7.54935 96.9266 7.81883C96.9435 7.98725 96.8929 8.13041 96.775 8.2483C96.6571 8.3662 96.5224 8.42515 96.3708 8.42515H94.1224C94.0382 8.42515 93.9624 8.41673 93.895 8.39989C93.8276 8.3662 93.7687 8.32409 93.7182 8.27357C93.516 8.13883 93.3055 7.98725 93.0866 7.81883C92.8845 7.63356 92.6402 7.47356 92.3539 7.33882C92.0676 7.20408 91.6971 7.13671 91.2423 7.13671C90.6865 7.13671 90.2571 7.26303 89.9539 7.51566C89.6676 7.75146 89.5244 8.05462 89.5244 8.42515C89.5244 8.66094 89.6002 8.87989 89.7518 9.082C89.9034 9.28411 90.215 9.46937 90.6865 9.63779C91.1581 9.80622 91.8739 9.98306 92.8339 10.1683C93.9792 10.3704 94.8887 10.6736 95.5624 11.0778C96.2361 11.482 96.7161 11.9536 97.0024 12.4926C97.3056 13.0147 97.4571 13.5789 97.4571 14.1852C97.4571 14.9768 97.2214 15.6842 96.7498 16.3073C96.2782 16.9137 95.5876 17.3937 94.6782 17.7474C93.7855 18.0842 92.6824 18.2526 91.3687 18.2526Z" fill="white"/>
</svg>
