<svg width="14" height="14" viewBox="0 0 14 14" fill="none" xmlns="http://www.w3.org/2000/svg">
<path d="M6.18861 13.1904C6.02505 13.1904 5.88602 13.1413 5.77153 13.0432C5.67339 12.9287 5.62432 12.7896 5.62432 12.6261V7.52289H0.594743C0.43118 7.52289 0.292151 7.47382 0.177657 7.37568C0.0795186 7.26119 0.0304496 7.12216 0.0304496 6.9586V6.17349C0.0304496 6.00993 0.0795186 5.87908 0.177657 5.78094C0.292151 5.66644 0.43118 5.6092 0.594743 5.6092H5.62432V0.653225C5.62432 0.489662 5.67339 0.358811 5.77153 0.260673C5.88602 0.146179 6.02505 0.0889312 6.18861 0.0889312H7.04732C7.21088 0.0889312 7.34173 0.146179 7.43987 0.260673C7.55437 0.358811 7.61161 0.489662 7.61161 0.653225V5.6092H12.6657C12.8293 5.6092 12.9601 5.66644 13.0583 5.78094C13.1728 5.87908 13.23 6.00993 13.23 6.17349V6.9586C13.23 7.12216 13.1728 7.26119 13.0583 7.37568C12.9601 7.47382 12.8293 7.52289 12.6657 7.52289H7.61161V12.6261C7.61161 12.7896 7.55437 12.9287 7.43987 13.0432C7.34173 13.1413 7.21088 13.1904 7.04732 13.1904H6.18861Z" fill="white"/>
</svg>
